<svg id="Layer_1" data-name="Layer 1" xmlns="http://www.w3.org/2000/svg" viewBox="0 0 384 54"><defs><style>.cls-1{fill:#e85556;}</style></defs><title>лого</title><g id="лого"><path class="cls-1" d="M384,12.73h-8.19v.13l-.44,2.44a8.12,8.12,0,0,0-3.18-2.22c-.34-.13-.69-.22-1-.35a15.39,15.39,0,0,0-3.7-.48,10.2,10.2,0,0,0-4.88,1,18.08,18.08,0,0,0-5.32,4.45,18.78,18.78,0,0,0-2.61,4.7,26.86,26.86,0,0,0-.92,2.75c-.13.52-.47,2-.52,2.39a21.93,21.93,0,0,0-.09,7.32,10.85,10.85,0,0,0,2.62,4.88,9.25,9.25,0,0,0,3,2.18,13.81,13.81,0,0,0,3.49.61,15.78,15.78,0,0,0,5.09-.87,12.7,12.7,0,0,0,3.84-2.14l-.44,2.57h0L370.32,44h0s-.09.48-.13.78a5.23,5.23,0,0,1-3.14,4,8.75,8.75,0,0,1-3.48.61c-.74,0-1.53,0-2.27-.09a22.64,22.64,0,0,1-7.23-2.57,4.25,4.25,0,0,1-1.3-1.09l.39,5a32.73,32.73,0,0,0,8,2.7,32.18,32.18,0,0,0,5.36.35,16.83,16.83,0,0,0,6.71-1.22A10.23,10.23,0,0,0,375.37,51,7.71,7.71,0,0,0,377.12,49a22.82,22.82,0,0,0,1.35-4.87L384,12.73Zm-9.63,8.1-.22,1.27-.69,4h0L372.06,34c-.3,1.48-1.69,2.92-3.83,3.7a10.41,10.41,0,0,1-2,.48h-.18c-.13,0-.3,0-.43,0h-.53a4.37,4.37,0,0,1-3-1.44,4,4,0,0,1-.78-1.53c-.35-1-.35-3.66.13-6.79,0-.31.26-1.66.31-1.88a20.62,20.62,0,0,1,2.61-7.45,5.39,5.39,0,0,1,1.22-1.21,6.39,6.39,0,0,1,3.66-1.31c.43,0,.83,0,1.26,0a5.93,5.93,0,0,1,2.05.66A3.35,3.35,0,0,1,374.37,20.83Z"/><polygon class="cls-1" points="282.02 0.75 274.75 42.09 282.94 42.09 290.21 0.75 282.02 0.75"/><path class="cls-1" d="M70,9.68a11.11,11.11,0,0,0-.48-3.57C68.26,2.54,64.43.8,60.42.8h-22L31.1,42.14h9.19l6.37-36.2h6.83c3.62,0,5.23.87,6.15,2.48a6.17,6.17,0,0,1,.69,3.05,11.09,11.09,0,0,1-.48,3.18,7.53,7.53,0,0,1-1.56,2.61A8.46,8.46,0,0,1,56.06,19a11.63,11.63,0,0,1-5.05.92H47.18l-.92,5.14,8.28,17H64.3L56,25.06A15.59,15.59,0,0,0,70,9.68Z"/><polygon class="cls-1" points="30.84 0.75 16.9 25.06 9.76 0.75 0 0.75 12.24 42.53 36.2 0.75 30.84 0.75"/><path class="cls-1" d="M97.58.75h-22L68.26,42.09h9.19l6.41-36.2H90.7c3.61,0,5.22.87,6.14,2.48a6.32,6.32,0,0,1,.7,3.05V12a10.7,10.7,0,0,1-.48,2.57,7.56,7.56,0,0,1-1.57,2.61,8.84,8.84,0,0,1-2.22,1.75,11.89,11.89,0,0,1-5,.91H84.42l-1,5.62h6a21,21,0,0,0,6.76-1,15.54,15.54,0,0,0,2.3-1,20.78,20.78,0,0,0,2.66-1.66,15.37,15.37,0,0,0,6-12.2A10.84,10.84,0,0,0,106.68,6C105.42,2.49,101.59.75,97.58.75Z"/><path class="cls-1" d="M146.41,36.43a29.89,29.89,0,0,1-5.18.48A6.74,6.74,0,0,1,134.74,33a15.28,15.28,0,0,1-.83-6.79,45.27,45.27,0,0,1,1.92-10.59,21.84,21.84,0,0,1,2.7-5.66,9.23,9.23,0,0,1,4.14-3.18c4.92-1.92,12.11-.7,15.68,2.09l-.52-6.62A23.52,23.52,0,0,0,149.94.45a32,32,0,0,0-9.8.61,17,17,0,0,0-9.28,6.23,27.14,27.14,0,0,0-2,3.05,44.27,44.27,0,0,0-4.14,15.11,25.22,25.22,0,0,0,.26,7.71,11.12,11.12,0,0,0,1.74,4.14c1.7,2.31,4.27,4.4,10.37,5a31.4,31.4,0,0,0,7.8-.17,22.24,22.24,0,0,0,7.53-2.4c.31-.17.79-.48.79-.48l1.09-6.1-.83.61A18.62,18.62,0,0,1,146.41,36.43Z"/><path class="cls-1" d="M201.87,13.17A12.89,12.89,0,0,0,198,15.3l.44-2.57h-8.19L185.1,42.09h8.19L197,20.79a5.61,5.61,0,0,1,3.83-3.7c3-1.09,6.41-.39,7.54,1.57a2.59,2.59,0,0,1,.31,1.69l-3.84,21.7h6.19l4.09-23.18h0a4.63,4.63,0,0,0-.52-3.05C212.8,12.47,207.05,11.29,201.87,13.17Z"/><path class="cls-1" d="M338.48,13.17a12.89,12.89,0,0,0-3.84,2.13l.44-2.57h-8.15l-5.18,29.36H330l3.75-21.3c.3-1.48,1.7-2.92,3.83-3.7,3.05-1.09,6.41-.39,7.54,1.57a2.58,2.58,0,0,1,.3,1.69l-3.83,21.7h6.19l4.05-23.18h0a4.63,4.63,0,0,0-.53-3.05C349.41,12.47,343.71,11.29,338.48,13.17Z"/><path class="cls-1" d="M264.68,33.38a6,6,0,0,1-2.35,3.22c-2.66,1.92-6.36,2.18-8.32.61a3,3,0,0,1-1.09-3l1.57-9,2.18-12.46h-8.15L244.86,33.6l-.17.91h0a6,6,0,0,0,2.18,5.93,10.82,10.82,0,0,0,6.66,2.09,17.31,17.31,0,0,0,10.06-3.27h0l-.47,2.83h6.18l5.18-29.36h-6.14Z"/><polygon class="cls-1" points="314 12.73 308.81 42.09 317 42.09 322.19 12.73 314 12.73"/><path class="cls-1" d="M318.66,10.07a5.93,5.93,0,0,0,5.31-5c.44-2.7-1.31-4.83-3.83-4.74a5.94,5.94,0,0,0-5.32,5C314.39,8,316.13,10.16,318.66,10.07Z"/><path class="cls-1" d="M185,20a9.6,9.6,0,0,0-5.14-6.58,16.47,16.47,0,0,0-7.53-1,20.56,20.56,0,0,0-5.06.91,13.68,13.68,0,0,0-6.7,4.62,18.57,18.57,0,0,0-2.62,4.58,24.44,24.44,0,0,0-.91,2.74c-.13.52-.48,2-.52,2.4a21.61,21.61,0,0,0,0,7.31A9.91,9.91,0,0,0,157.74,38a13.93,13.93,0,0,0,1.65,2,9.32,9.32,0,0,0,2.18,1.48,17.07,17.07,0,0,0,7.54,1.05,19.34,19.34,0,0,0,5-.92A13.65,13.65,0,0,0,180.87,37a20.84,20.84,0,0,0,3.75-8.24c.08-.43.26-1.26.26-1.26A21.71,21.71,0,0,0,185,20Zm-8.23,6.19c-.13.78-.22,1.44-.35,2a20.71,20.71,0,0,1-2.61,7.53,5.23,5.23,0,0,1-1.22,1.22c-2.35,1.79-5.58,1.75-7.23-.13a3.81,3.81,0,0,1-.79-1.52,19.11,19.11,0,0,1,.13-6.8c.05-.3.27-1.65.31-1.87a20.74,20.74,0,0,1,2.61-7.45,5.43,5.43,0,0,1,1.22-1.22c2.36-1.78,5.58-1.74,7.23.13a3.92,3.92,0,0,1,.79,1.53,18.35,18.35,0,0,1-.09,6.62Z"/><path class="cls-1" d="M228.66,17.31a14.47,14.47,0,0,1,4.35-.66h.7a22,22,0,0,1,2.92.18,19.93,19.93,0,0,1,2.7.56,14.52,14.52,0,0,1,3.4,1.4l-.39-4.88a20.4,20.4,0,0,0-4.27-1.14,38.23,38.23,0,0,0-8.93-.56,15.57,15.57,0,0,0-5.8,1.26,9.56,9.56,0,0,0-5.09,6.41,7.58,7.58,0,0,0,.34,5.18,3.26,3.26,0,0,0,.88,1,6.88,6.88,0,0,0,1.74,1,13.75,13.75,0,0,0,2.52.78c.7.18,4.23.83,5.36,1.09,1.66.39,3.14,1,3.62,1.61a3.75,3.75,0,0,1,.61,2.23,6.08,6.08,0,0,1-.57,2.44,6,6,0,0,1-2.61,2.48,8.83,8.83,0,0,1-3.49.61,16.65,16.65,0,0,1-9.49-2.66,4.41,4.41,0,0,1-1.31-1.09l.39,5a30.22,30.22,0,0,0,8,2.7,32.11,32.11,0,0,0,5.36.35,16.74,16.74,0,0,0,6.7-1.22A10.19,10.19,0,0,0,240.11,38a8.21,8.21,0,0,0,1.31-3.14,12.84,12.84,0,0,0,.26-2.61,7.74,7.74,0,0,0-1.09-4.4,7.83,7.83,0,0,0-4.88-3.4c-.78-.21-3.31-1-4.66-1.39a10.77,10.77,0,0,1-3.92-1.83,1.91,1.91,0,0,1-.52-1.48,2.12,2.12,0,0,1,.35-1.13A3.12,3.12,0,0,1,228.66,17.31Z"/><path class="cls-1" d="M301.75,37.17a3,3,0,0,1-1.08-3l1.56-9,1.31-7.54h0l.18-1.05h5.61l.7-3.87h-5.62l2.09-12h-8.19l-2.09,12H290.6l-.69,3.87h5.62l-3,17-.17.92h0a6,6,0,0,0,2.17,5.92,7.81,7.81,0,0,0,.79.57l.13.09c.22.13.48.26.74.39l.13,0c.26.13.52.22.83.35l.08,0a12.65,12.65,0,0,0,4.06.66,16.26,16.26,0,0,0,4.61-.66c0-.69-.26-3.61-.35-4.26A4.76,4.76,0,0,1,301.75,37.17Z"/></g></svg>